<?xml version="1.0" encoding="utf-8"?>
<!-- Generator: Adobe Illustrator 19.0.0, SVG Export Plug-In . SVG Version: 6.00 Build 0)  -->
<svg version="1.0" id="Layer_1" xmlns="http://www.w3.org/2000/svg" xmlns:xlink="http://www.w3.org/1999/xlink" x="0px" y="0px"
	 viewBox="0 0 100 100" style="enable-background:new 0 0 100 100;" xml:space="preserve">
<circle id="Circle1" class="st0" cx="-31.9" cy="31.8" r="18.1"/>
<circle id="Circle2" class="st0" cx="-31.9" cy="-31.8" r="18.1"/>
<circle id="Circle3" class="st0" cx="31.9" cy="-31.8" r="18.1"/>
<circle id="Circle4" class="st0" cx="31.9" cy="31.8" r="18.1"/>
<rect id="Body" x="-11" y="-10.7" class="st1" width="21.6" height="21.6"/>
<rect id="Beam1" x="13.2" y="-20.8" transform="matrix(0.7071 0.7071 -0.7071 0.7071 -6.0721 -14.6211)" class="st2" width="2.8" height="12.3"/>
<rect id="Arrow" x="-1.6" y="-38.3" class="st2" width="2.8" height="27.6"/>
<rect id="Beam2" x="13.2" y="8.8" transform="matrix(-0.7071 0.7071 -0.7071 -0.7071 35.517 15.187)" class="st2" width="2.8" height="12.3"/>
<rect id="Beam3" x="-16.5" y="-20.8" transform="matrix(-0.7071 0.7071 -0.7071 -0.7071 -36.1607 -14.3022)" class="st2" width="2.8" height="12.3"/>
<rect id="Beam4" x="-16.5" y="8.8" transform="matrix(0.7071 0.7071 -0.7071 0.7071 6.1427 15.0688)" class="st2" width="2.8" height="12.3"/>
</svg>
